<?xml version="1.0" standalone="no"?>
<!DOCTYPE svg PUBLIC "-//W3C//DTD SVG 20010904//EN"
 "http://www.w3.org/TR/2001/REC-SVG-20010904/DTD/svg10.dtd">
<svg version="1.0" xmlns="http://www.w3.org/2000/svg"
 width="144.000000pt" height="144.000000pt" viewBox="0 0 144.000000 144.000000"
 preserveAspectRatio="xMidYMid meet">
<metadata>
Created by potrace 1.11, written by Peter Selinger 2001-2013
</metadata>
<g transform="translate(0.000000,144.000000) scale(0.100000,-0.100000)"
fill="#000000" stroke="none">
<path d="M1314 1124 c-47 -57 -84 -104 -104 -134 -8 -12 -34 -49 -58 -81 -23
-33 -40 -65 -36 -71 4 -6 3 -8 -3 -5 -6 4 -25 -14 -43 -39 -27 -38 -30 -48
-19 -56 11 -8 10 -9 -3 -4 -12 3 -24 -3 -34 -20 -20 -29 -29 -23 -54 33 -15
34 -17 36 -22 15 -3 -12 -2 -20 2 -17 5 3 11 1 15 -5 3 -5 1 -10 -6 -10 -8 0
-9 -3 0 -13 6 -8 8 -17 4 -20 -3 -4 0 -13 7 -22 8 -10 9 -15 1 -15 -6 0 -11 5
-11 11 0 8 -4 9 -13 0 -8 -6 -16 -10 -18 -8 -3 1 3 -5 13 -15 10 -9 18 -19 18
-23 0 -11 -45 7 -53 22 -5 8 -17 12 -30 8 -22 -5 -22 -5 1 6 24 13 31 32 8 23
-7 -3 -16 2 -20 12 -4 12 -2 15 9 10 8 -3 22 -9 30 -12 18 -8 20 16 3 35 -11
12 -10 13 6 7 16 -5 17 -4 6 9 -12 14 -7 19 13 16 5 -1 6 3 3 8 -4 5 -2 12 4
16 13 8 3 25 -13 25 -8 0 -8 -3 1 -9 10 -6 10 -10 -3 -21 -18 -15 -20 -14 -30
19 -5 18 -4 22 6 17 8 -4 6 -1 -5 8 -10 8 -15 19 -12 24 3 5 -4 18 -15 28 -11
10 -17 24 -15 31 3 7 1 13 -5 13 -6 0 -8 4 -4 9 3 5 -2 17 -11 25 -11 12 -12
16 -2 16 9 0 9 3 2 8 -11 7 -25 49 -29 84 -2 22 -4 24 -33 32 -16 6 -27 1 -42
-16 -51 -60 -172 -234 -230 -330 -65 -107 -65 -107 -83 -85 -56 69 -142 197
-197 293 -35 60 -64 111 -66 113 -2 2 -17 -11 -34 -28 -17 -17 -36 -31 -41
-31 -5 0 -3 -13 6 -30 8 -16 15 -32 14 -35 -1 -3 1 -24 5 -48 3 -23 8 -73 11
-112 6 -80 14 -169 20 -205 2 -14 6 -52 10 -85 8 -74 14 -115 21 -137 12 -40
13 -62 3 -75 -39 -46 89 -65 331 -48 52 3 105 6 117 6 13 -1 23 5 23 12 0 10
-19 13 -73 13 -66 -1 -73 1 -69 17 2 10 25 29 51 41 25 13 54 33 65 45 10 11
22 18 26 16 4 -3 11 2 14 10 4 13 2 14 -14 5 -11 -6 -20 -8 -20 -5 0 3 -20 -6
-45 -19 -25 -14 -45 -23 -45 -21 0 3 -9 -4 -20 -15 -17 -17 -44 -25 -72 -22
-3 1 -12 -5 -18 -13 -7 -8 -21 -15 -31 -15 -10 0 -20 -4 -23 -9 -6 -8 -92 12
-105 25 -3 3 1 9 9 14 11 7 12 10 2 10 -7 0 -10 4 -7 10 3 6 -2 10 -12 10 -15
0 -16 2 -3 10 8 5 11 12 7 16 -4 4 -1 14 6 22 10 12 9 16 -1 20 -10 3 -10 9 3
28 8 13 11 24 5 24 -5 0 -10 5 -10 11 0 6 7 9 15 5 18 -6 45 2 45 15 0 5 -3 8
-7 7 -5 -2 -18 4 -29 12 l-22 15 24 12 c23 11 24 10 18 -10 -6 -21 -6 -22 14
-4 13 12 22 15 27 8 3 -6 17 -11 29 -11 13 0 30 -10 38 -21 8 -12 26 -23 41
-25 24 -2 33 5 60 49 18 29 32 54 32 57 0 3 10 21 23 41 12 20 22 41 22 46 0
6 9 18 20 28 11 10 20 29 20 42 0 12 5 23 11 23 6 0 9 6 6 14 -3 8 -3 16 1 18
11 5 68 81 75 101 8 22 26 18 41 -8 6 -10 21 -30 34 -44 12 -14 22 -36 22 -48
0 -13 4 -23 10 -23 5 0 7 -6 4 -14 -3 -9 3 -17 15 -21 12 -3 19 -11 16 -16 -4
-5 -15 -4 -28 2 -21 12 -21 11 -4 -8 24 -28 21 -40 -5 -17 -19 15 -20 16 -9 2
11 -15 11 -21 0 -35 -13 -16 -12 -17 3 -5 10 8 19 9 22 3 4 -5 2 -12 -4 -16
-6 -4 -8 -11 -5 -16 4 -5 3 -14 -1 -20 -5 -8 -9 -8 -14 1 -5 7 -9 2 -12 -14
-3 -14 -1 -26 3 -26 5 0 9 -5 9 -10 0 -6 -11 -3 -25 6 -14 9 -25 12 -25 6 0
-6 7 -15 16 -20 10 -6 14 -14 9 -22 -6 -10 -9 -10 -15 0 -6 9 -15 10 -36 2
-24 -9 -18 -15 12 -11 3 0 13 -8 22 -19 9 -10 23 -17 30 -15 6 3 12 0 12 -6 0
-6 5 -11 10 -11 6 0 10 7 10 15 0 18 16 20 23 3 4 -10 6 -10 6 0 1 6 10 12 21
12 11 0 29 9 41 21 13 13 30 19 47 17 18 -2 26 2 24 10 -1 8 2 11 7 8 5 -3 21
10 35 29 15 19 34 35 42 35 8 0 39 25 69 56 29 31 55 51 59 46 3 -5 0 -15 -8
-21 -8 -7 -12 -22 -10 -34 2 -12 2 -17 -2 -10 -3 7 -12 9 -20 6 -13 -5 -13 -8
2 -24 9 -10 13 -23 9 -29 -4 -6 -1 -18 6 -26 27 -33 16 -44 -12 -13 -16 18
-29 28 -29 21 0 -6 8 -16 18 -21 16 -10 16 -10 -2 -11 -18 0 -18 -1 -1 -20 10
-11 24 -20 31 -20 8 0 11 -6 7 -16 -3 -9 -13 -14 -24 -11 -11 3 -19 -2 -22
-14 -5 -19 -37 -22 -53 -6 -11 11 -34 8 -34 -4 0 -6 7 -9 14 -6 9 4 13 1 10
-7 -3 -7 6 -18 20 -26 33 -17 44 -44 14 -34 -16 5 -20 3 -15 -9 6 -16 -18 -31
-34 -21 -5 3 -9 1 -9 -5 0 -5 6 -12 13 -15 6 -3 3 -4 -8 -3 -11 2 -19 9 -17
16 1 7 -2 10 -7 6 -6 -3 -7 -13 -4 -22 4 -11 2 -14 -5 -9 -6 4 -22 1 -34 -6
-13 -7 -34 -14 -48 -15 -14 -1 -37 -4 -52 -7 -16 -2 -28 0 -28 5 0 6 -10 3
-21 -5 -20 -14 -54 -12 -45 3 3 4 -6 8 -19 9 -13 1 -38 16 -57 32 -32 30 -32
31 -5 19 15 -7 27 -16 27 -21 0 -4 7 -8 15 -8 12 0 13 4 3 25 -6 13 -15 22
-19 19 -5 -3 -6 2 -3 10 3 9 11 14 17 13 7 -1 11 3 10 9 -1 8 6 10 20 6 12 -3
19 -1 15 3 -4 5 -3 14 3 22 9 10 7 13 -10 13 -12 0 -19 -4 -16 -10 3 -5 -3
-10 -14 -10 -11 0 -27 -9 -35 -21 -8 -12 -19 -18 -25 -14 -11 6 -16 -12 -13
-48 2 -14 -2 -16 -17 -7 -11 5 -22 7 -25 2 -5 -9 19 -44 26 -36 3 2 8 -1 11
-8 4 -11 -10 -13 -61 -12 -46 1 -60 -1 -48 -8 17 -9 54 -18 89 -21 10 -1 15
-7 13 -14 -3 -8 1 -10 11 -6 12 5 15 2 11 -9 -5 -12 0 -14 20 -12 15 2 47 6
72 9 198 24 214 27 280 50 53 19 58 19 62 -1 2 -13 15 -6 54 29 47 43 53 53
73 129 11 46 41 160 65 253 25 94 47 194 51 224 3 30 8 58 11 63 3 5 7 25 10
46 7 67 10 81 17 88 12 13 8 21 -18 32 -40 19 -49 15 -91 -34z m39 -4 c-10
-11 -19 -20 -21 -20 -1 0 2 9 8 20 6 11 15 20 20 20 6 0 2 -9 -7 -20z m-109
-330 c-4 -19 -11 -37 -16 -38 -5 -2 -4 -10 2 -17 8 -10 8 -19 0 -34 -6 -12 -8
-21 -4 -21 3 0 2 -6 -3 -12 -6 -7 -9 -23 -8 -35 1 -15 -3 -19 -14 -15 -14 5
-14 4 -1 -14 11 -14 11 -16 0 -7 -15 14 -22 56 -8 47 4 -3 9 -2 9 3 1 4 3 19
4 33 2 14 5 32 7 39 2 8 -8 20 -21 27 -21 11 -27 10 -39 -4 -31 -38 -3 18 35
68 34 46 39 49 50 33 9 -11 11 -30 7 -53z m-314 -224 c0 -3 -4 -8 -10 -11 -5
-3 -10 -1 -10 4 0 6 5 11 10 11 6 0 10 -2 10 -4z m-86 -30 c-3 -9 -10 -13 -15
-10 -5 3 -3 11 4 19 15 16 19 13 11 -9z m50 9 c-4 -8 -10 -13 -14 -10 -5 3
-11 -1 -13 -7 -4 -8 -6 -7 -6 4 -1 15 11 25 31 27 4 1 5 -6 2 -14z m-84 -25
c0 -5 -5 -10 -11 -10 -5 0 -7 5 -4 10 3 6 8 10 11 10 2 0 4 -4 4 -10z m-526
-29 c-4 -3 -9 0 -11 7 -3 6 -10 9 -15 6 -7 -4 -8 -2 -4 5 6 9 11 9 22 0 8 -6
12 -15 8 -18z m886 -21 c-24 -15 -37 -11 -16 5 11 8 22 12 25 9 3 -3 -1 -9 -9
-14z m-10 -30 c0 -5 -2 -10 -4 -10 -3 0 -8 5 -11 10 -3 6 -1 10 4 10 6 0 11
-4 11 -10z m-435 -109 c3 -5 2 -12 -3 -15 -5 -3 -9 1 -9 9 0 17 3 19 12 6z
m69 -58 c8 -19 -32 -26 -67 -12 l-32 14 30 6 c44 9 64 6 69 -8z m56 -1 c0 -4
-9 -8 -20 -9 -11 -1 -20 2 -20 8 0 5 9 9 20 9 11 0 20 -4 20 -8z"/>
<path d="M650 751 c0 -5 7 -11 15 -15 9 -3 15 0 15 9 0 8 -7 15 -15 15 -8 0
-15 -4 -15 -9z"/>
<path d="M780 689 c0 -5 5 -7 10 -4 6 3 10 8 10 11 0 2 -4 4 -10 4 -5 0 -10
-5 -10 -11z"/>
<path d="M1069 618 c-1 -2 -3 -13 -4 -25 -1 -14 2 -20 11 -16 8 3 14 9 14 15
0 5 -5 6 -12 2 -8 -5 -9 -2 -5 9 5 13 1 25 -4 15z"/>
<path d="M590 600 c0 -5 5 -10 10 -10 6 0 10 5 10 10 0 6 -4 10 -10 10 -5 0
-10 -4 -10 -10z"/>
<path d="M1095 571 c-3 -5 0 -13 6 -17 8 -5 9 -3 4 6 -6 10 -4 12 9 7 10 -4
15 -3 11 3 -8 13 -22 13 -30 1z"/>
<path d="M1126 534 c-8 -22 2 -33 14 -14 7 12 11 12 27 0 16 -13 16 -12 -1 8
-23 26 -32 28 -40 6z"/>
<path d="M706 475 c-9 -26 -7 -32 5 -12 6 10 9 21 6 23 -2 3 -7 -2 -11 -11z"/>
<path d="M309 443 c-13 -16 -12 -17 4 -4 16 13 21 21 13 21 -2 0 -10 -8 -17
-17z"/>
<path d="M596 438 c3 -5 10 -6 15 -3 13 9 11 12 -6 12 -8 0 -12 -4 -9 -9z"/>
<path d="M1020 435 c-10 -12 -10 -15 3 -15 9 0 21 -8 26 -17 6 -10 11 -13 11
-6 0 6 -7 18 -15 26 -11 12 -12 17 -2 20 7 4 8 6 1 6 -6 1 -17 -6 -24 -14z"/>
<path d="M1067 434 c-3 -3 -3 -12 0 -20 4 -11 9 -12 19 -3 8 6 11 15 8 20 -6
10 -18 12 -27 3z"/>
<path d="M774 406 c-3 -8 0 -25 7 -38 8 -16 14 -19 17 -9 2 7 1 16 -4 20 -5 3
-10 12 -12 19 -2 10 4 12 20 7 18 -5 20 -4 8 4 -20 14 -30 14 -36 -3z"/>
<path d="M650 259 c0 -5 5 -7 10 -4 6 3 10 8 10 11 0 2 -4 4 -10 4 -5 0 -10
-5 -10 -11z"/>
</g>
</svg>
